<svg
  xmlns="http://www.w3.org/2000/svg"
  width="24"
  height="24"
  viewBox="0 0 24 24"
  fill="none"
  >
   <path
    d="M5.00006 22.0005C4.73484 22.0005 4.48049 21.8951 4.29295 21.7076C4.10542 21.5201 4.00006 21.2657 4.00006 21.0005V13.0005C4.00006 12.7353 4.10542 12.4809 4.29295 12.2934C4.48049 12.1058 4.73484 12.0005 5.00006 12.0005C5.26528 12.0005 5.51963 12.1058 5.70717 12.2934C5.8947 12.4809 6.00006 12.7353 6.00006 13.0005V21.0005C6.00006 21.2657 5.8947 21.5201 5.70717 21.7076C5.51963 21.8951 5.26528 22.0005 5.00006 22.0005ZM10.0001 22.0005C9.73484 22.0005 9.48049 21.8951 9.29295 21.7076C9.10542 21.5201 9.00006 21.2657 9.00006 21.0005V3.00049C9.00006 2.73527 9.10542 2.48092 9.29295 2.29338C9.48049 2.10585 9.73484 2.00049 10.0001 2.00049C10.2653 2.00049 10.5196 2.10585 10.7072 2.29338C10.8947 2.48092 11.0001 2.73527 11.0001 3.00049V21.0005C11.0001 21.2657 10.8947 21.5201 10.7072 21.7076C10.5196 21.8951 10.2653 22.0005 10.0001 22.0005ZM15.0001 22.0005C14.7348 22.0005 14.4805 21.8951 14.293 21.7076C14.1054 21.5201 14.0001 21.2657 14.0001 21.0005V9.00049C14.0001 8.73527 14.1054 8.48092 14.293 8.29338C14.4805 8.10585 14.7348 8.00049 15.0001 8.00049C15.2653 8.00049 15.5196 8.10585 15.7072 8.29338C15.8947 8.48092 16.0001 8.73527 16.0001 9.00049V21.0005C16.0001 21.2657 15.8947 21.5201 15.7072 21.7076C15.5196 21.8951 15.2653 22.0005 15.0001 22.0005ZM20.0001 22.0005C19.7348 22.0005 19.4805 21.8951 19.293 21.7076C19.1054 21.5201 19.0001 21.2657 19.0001 21.0005V17.0005C19.0001 16.7353 19.1054 16.4809 19.293 16.2934C19.4805 16.1058 19.7348 16.0005 20.0001 16.0005C20.2653 16.0005 20.5196 16.1058 20.7072 16.2934C20.8947 16.4809 21.0001 16.7353 21.0001 17.0005V21.0005C21.0001 21.2657 20.8947 21.5201 20.7072 21.7076C20.5196 21.8951 20.2653 22.0005 20.0001 22.0005Z"
    fill="#333333"
   />
</svg>