<svg
                  xmlns="http://www.w3.org/2000/svg"
                  width="16"
                  height="17"
                  viewBox="0 0 16 17"
                  fill="none"
                >
                  <path
                    fill-rule="evenodd"
                    clip-rule="evenodd"
                    d="M3.33276 3.16659H12.6661C13.0343 3.16659 13.3328 3.46506 13.3328 3.83325V13.1666C13.3328 13.5348 13.0343 13.8333 12.6661 13.8333H8.50008V15.1666H12.6661C13.7707 15.1666 14.6661 14.2712 14.6661 13.1666V3.83325C14.6661 2.72868 13.7707 1.83325 12.6661 1.83325H3.33276C2.22819 1.83325 1.33276 2.72868 1.33276 3.83325V8.5H2.6661V3.83325C2.6661 3.46506 2.96457 3.16659 3.33276 3.16659ZM11.3328 4.49992C11.3328 6.70906 9.84038 8.49992 7.99943 8.49992C6.15848 8.49992 4.6661 6.70906 4.6661 4.49992H5.99943C5.99943 6.21062 7.11216 7.16658 7.99943 7.16658C8.8867 7.16658 9.99943 6.21062 9.99943 4.49992H11.3328Z"
                    fill="white"
                  />
                  <path
                    d="M4 10.5V14.5M2 12.5L6 12.5"
                    stroke="white"
                    stroke-width="2"
                    stroke-linecap="round"
                    stroke-linejoin="round"
                  />
                </svg>