<svg
  xmlns="http://www.w3.org/2000/svg"
  width="24"
  height="24"
  viewBox="0 0 24 24"
  fill="none"
  >
   <path
    fill-rule="evenodd"
    clip-rule="evenodd"
    d="M19 4H5C4.44772 4 4 4.44771 4 5V19C4 19.5523 4.44772 20 5 20H19C19.5523 20 20 19.5523 20 19V5C20 4.44772 19.5523 4 19 4ZM22 5C22 3.34315 20.6569 2 19 2H5C3.34315 2 2 3.34315 2 5V19C2 20.6569 3.34315 22 5 22H19C20.6569 22 22 20.6569 22 19V5ZM12 12C14.7614 12 17 9.31371 17 6H15C15 8.56606 13.3309 10 12 10C10.6691 10 9 8.56606 9 6H7C7 9.31371 9.23858 12 12 12Z"
    fill="#333333"
   />
</svg>