<svg
    xmlns="http://www.w3.org/2000/svg"
    width="16"
    height="16"
    viewBox="0 0 16 16"
    fill="none"
    >
     <path
     fill-rule="evenodd"
     clip-rule="evenodd"
     d="M5.33335 4.66667C5.33335 6.13943 6.52726 7.33333 8.00002 7.33333C9.47278 7.33333 10.6667 6.13943 10.6667 4.66667C10.6667 3.19391 9.47278 2 8.00002 2C6.52726 2 5.33335 3.19391 5.33335 4.66667ZM6.66669 4.66667C6.66669 5.40305 7.26364 6 8.00002 6C8.7364 6 9.33335 5.40305 9.33335 4.66667C9.33335 3.93029 8.7364 3.33333 8.00002 3.33333C7.26364 3.33333 6.66669 3.93029 6.66669 4.66667Z"
     fill="#FF5C00"
     />
     <path
     d="M4.66669 10C4.66669 9.63181 4.96516 9.33333 5.33335 9.33333H10.6667C11.0349 9.33333 11.3334 9.63181 11.3334 10V14H12.6667V10C12.6667 8.89543 11.7713 8 10.6667 8H5.33335C4.22878 8 3.33335 8.89543 3.33335 10V14H4.66669V10Z"
     fill="#FF5C00"
     />
</svg>